<?xml version="1.0" standalone="no"?>
<!DOCTYPE svg PUBLIC "-//W3C//DTD SVG 20010904//EN"
 "http://www.w3.org/TR/2001/REC-SVG-20010904/DTD/svg10.dtd">
<svg version="1.0" xmlns="http://www.w3.org/2000/svg"
 width="700.000000pt" height="700.000000pt" viewBox="0 0 700.000000 700.000000"
 preserveAspectRatio="xMidYMid meet">
<metadata>
Created by potrace 1.11, written by Peter Selinger 2001-2013
</metadata>
<g transform="translate(0.000000,700.000000) scale(0.100000,-0.100000)"
fill="#000000" stroke="none">
<path d="M2904 6410 c-211 -29 -402 -166 -494 -354 -41 -83 -70 -179 -70 -228
0 -33 -7 -34 -87 -13 -73 19 -202 19 -278 0 -182 -46 -362 -190 -443 -355 -72
-148 -90 -292 -53 -433 9 -37 15 -69 13 -72 -3 -3 -19 -5 -35 -5 -75 0 -215
-54 -310 -119 -112 -77 -220 -239 -253 -377 -24 -103 -15 -266 20 -360 14 -39
26 -76 26 -81 0 -5 -12 -15 -26 -22 -84 -38 -206 -166 -259 -271 -81 -161 -92
-351 -29 -519 33 -86 75 -152 148 -228 l59 -63 -31 -62 c-44 -92 -62 -161 -69
-263 -10 -181 53 -349 180 -479 40 -40 85 -82 100 -92 l29 -20 -12 -83 c-30
-205 34 -395 185 -547 140 -140 300 -202 501 -191 l104 5 24 -54 c108 -236
357 -442 612 -508 281 -73 565 -16 809 160 98 70 157 94 235 94 78 0 137 -24
235 -94 244 -176 528 -233 809 -160 255 66 504 273 612 509 l24 53 104 -5
c201 -11 361 51 501 191 151 152 215 342 185 547 l-12 83 29 20 c15 10 60 52
100 92 193 196 236 484 111 742 l-31 62 59 63 c73 76 115 142 148 228 97 258
16 554 -198 727 -34 28 -74 56 -89 63 -15 7 -27 17 -27 22 0 5 12 42 26 81 21
56 28 95 31 181 6 135 -11 216 -68 325 -94 182 -268 310 -466 343 -43 7 -77
16 -76 20 42 159 42 285 0 405 -38 108 -82 177 -172 267 -88 88 -197 152 -310
180 -76 19 -205 19 -278 0 -80 -21 -87 -20 -87 13 0 96 -80 276 -166 370 -128
142 -291 214 -484 214 -116 0 -194 -19 -309 -76 -164 -83 -238 -83 -402 0
-134 67 -265 91 -395 74z m-449 -1044 c28 -12 69 -44 93 -69 l42 -47 380 0
380 0 0 -145 0 -145 -385 0 c-216 0 -385 -4 -385 -9 0 -18 -82 -90 -128 -112
-35 -17 -65 -23 -117 -23 -120 -1 -218 62 -269 173 -28 63 -28 168 1 233 27
60 101 132 156 151 67 24 173 21 232 -7z m2193 -2 c174 -86 216 -308 86 -453
-115 -128 -313 -128 -428 0 l-44 49 -306 0 -306 0 0 145 0 145 306 0 306 0 39
44 c59 67 126 96 219 96 62 0 86 -5 128 -26z m-2632 -1018 c50 -23 124 -87
124 -106 0 -6 144 -10 385 -10 l385 0 0 -377 0 -377 49 -47 c76 -73 96 -117
96 -219 0 -68 -5 -93 -22 -126 -36 -67 -70 -101 -135 -133 -155 -78 -337 -6
-398 157 -24 64 -25 120 -4 193 12 42 28 66 75 112 l59 58 0 234 0 235 -239 0
-239 0 -27 -36 c-63 -82 -179 -126 -281 -105 -227 45 -315 318 -156 485 83 86
220 112 328 62z m3209 0 c205 -97 226 -383 37 -505 -66 -42 -146 -58 -216 -42
-65 15 -134 57 -171 105 l-27 36 -239 0 -239 0 0 -234 0 -234 59 -60 c46 -45
63 -71 75 -112 21 -71 20 -128 -4 -192 -28 -74 -70 -122 -142 -157 -86 -44
-170 -44 -256 0 -70 35 -105 71 -140 148 -21 45 -24 64 -20 125 6 88 31 141
99 205 l49 47 0 377 0 377 385 0 c241 0 385 4 385 10 0 19 74 83 124 106 71
33 171 33 241 0z m-3490 -1023 c157 -82 205 -281 104 -430 -16 -23 -43 -51
-59 -63 l-30 -21 0 -165 0 -164 580 0 580 0 0 -305 0 -305 58 -58 c41 -40 64
-72 75 -106 66 -194 -71 -389 -273 -389 -269 0 -391 337 -185 509 l45 38 0
163 0 163 -585 0 -585 0 0 308 0 308 -44 37 c-161 134 -124 392 68 484 44 21
62 24 131 20 56 -2 92 -10 120 -24z m3780 3 c88 -43 133 -97 160 -189 30 -105
-7 -224 -91 -294 l-44 -37 0 -308 0 -308 -585 0 -585 0 0 -163 0 -163 43 -35
c127 -107 141 -296 31 -418 -176 -196 -504 -69 -504 194 0 83 26 143 92 208
l58 59 0 304 0 304 580 0 580 0 0 164 0 165 -30 21 c-37 27 -83 93 -100 144
-48 149 41 321 190 367 56 17 153 10 205 -15z"/>
</g>
</svg>
